<?xml version="1.0" encoding="utf-8"?>
<!-- Generator: Adobe Illustrator 28.1.0, SVG Export Plug-In . SVG Version: 6.00 Build 0)  -->
<svg version="1.1" xmlns="http://www.w3.org/2000/svg" xmlns:xlink="http://www.w3.org/1999/xlink" x="0px" y="0px"
	 viewBox="0 0 960 719" style="enable-background:new 0 0 960 719;" xml:space="preserve">
<style type="text/css">
	.st0{display:none;}
	.st1{display:inline;}
	.st2{clip-path:url(#SVGID_00000080195964807232028690000007762584768880505257_);}
	.st3{fill:#1A1A1E;}
	.st4{fill:#242429;}
	.st5{clip-path:url(#SVGID_00000058568072092180516430000003529371787994805380_);}
	.st6{fill:#97979F;fill-opacity:8.000000e-02;}
	.st7{fill:#212326;}
	.st8{fill:#B7B9BC;}
	.st9{fill:#7C7E81;}
	.st10{fill:#2F3137;}
	.st11{fill:#8E9297;}
	.st12{fill:#38393C;}
</style>
<g id="Layer_1" class="st0">
	<g class="st1">
		<defs>
			<rect id="SVGID_1_" y="-81" width="960" height="800"/>
		</defs>
		<clipPath id="SVGID_00000067940719756291974370000017063233729649335979_">
			<use xlink:href="#SVGID_1_"  style="overflow:visible;"/>
		</clipPath>
		<g style="clip-path:url(#SVGID_00000067940719756291974370000017063233729649335979_);">
			<rect y="-81" class="st3" width="960" height="800"/>
			<path class="st4" d="M480-13c0-6.6,5.4-12,12-12h36c6.6,0,12,5.4,12,12v11c0,6.6-5.4,12-12,12h-36c-6.6,0-12-5.4-12-12V-13z"/>
			<path class="st4" d="M564-13c0-6.6,5.4-12,12-12h105c6.6,0,12,5.4,12,12v11c0,6.6-5.4,12-12,12H576c-6.6,0-12-5.4-12-12V-13z"/>
			<path class="st4" d="M717-13c0-6.6,5.4-12,12-12h105c6.6,0,12,5.4,12,12v11c0,6.6-5.4,12-12,12H729c-6.6,0-12-5.4-12-12V-13z"/>
			<path class="st4" d="M480,42c0-4.4,3.6-8,8-8h84c4.4,0,8,3.6,8,8s-3.6,8-8,8h-84C483.6,50,480,46.5,480,42z"/>
			<path class="st4" d="M480,70c0-6.6,5.4-12,12-12h408c6.6,0,12,5.4,12,12v126c0,6.6-5.4,12-12,12H492c-6.6,0-12-5.4-12-12V70z"/>
			<path class="st4" d="M480,228c0-6.6,5.4-12,12-12h408c6.6,0,12,5.4,12,12v126c0,6.6-5.4,12-12,12H492c-6.6,0-12-5.4-12-12V228z"
				/>
			<path class="st4" d="M480,398c0-4.4,3.6-8,8-8h84c4.4,0,8,3.6,8,8s-3.6,8-8,8h-84C483.6,406,480,402.5,480,398z"/>
			<path class="st4" d="M480,426c0-6.6,5.4-12,12-12h408c6.6,0,12,5.4,12,12v56c0,6.6-5.4,12-12,12H492c-6.6,0-12-5.4-12-12V426z"/>
			<path class="st4" d="M480,514c0-6.6,5.4-12,12-12h408c6.6,0,12,5.4,12,12v56c0,6.6-5.4,12-12,12H492c-6.6,0-12-5.4-12-12V514z"/>
			<path class="st4" d="M480,602c0-6.6,5.4-12,12-12h408c6.6,0,12,5.4,12,12v56c0,6.6-5.4,12-12,12H492c-6.6,0-12-5.4-12-12V602z"/>
			<path class="st4" d="M480,690c0-6.6,5.4-12,12-12h408c6.6,0,12,5.4,12,12v56c0,6.6-5.4,12-12,12H492c-6.6,0-12-5.4-12-12V690z"/>
			<g>
				<path class="st4" d="M48-33c0-8.8,7.2-16,16-16h368c8.8,0,16,7.2,16,16v753H48V-33z"/>
				<g>
					<defs>
						<path id="SVGID_00000138563406443587224660000017342034433848187575_" d="M48-33c0-8.8,7.2-16,16-16h368c8.8,0,16,7.2,16,16
							V71H48V-33z"/>
					</defs>
					<clipPath id="SVGID_00000118383757276741635110000000154728034271498668_">
						<use xlink:href="#SVGID_00000138563406443587224660000017342034433848187575_"  style="overflow:visible;"/>
					</clipPath>
					<g style="clip-path:url(#SVGID_00000118383757276741635110000000154728034271498668_);">
						<path class="st6" d="M448,71H186c0-30.9-25.1-56-56-56c-30.9,0-56,25.1-56,56H48V-49h400V71z"/>
					</g>
				</g>
				<path class="st6" d="M130,21c27.6,0,50,22.4,50,50s-22.4,50-50,50S80,98.7,80,71C80,43.4,102.4,21,130,21z"/>
				<path class="st6" d="M80,146c0-6.6,5.4-12,12-12h94c6.6,0,12,5.4,12,12v11c0,6.6-5.4,12-12,12H92c-6.6,0-12-5.4-12-12V146z"/>
				<path class="st6" d="M80,189c0-4.4,3.6-8,8-8h266c4.4,0,8,3.6,8,8s-3.6,8-8,8H88C83.6,197,80,193.5,80,189z"/>
				<path class="st6" d="M80,229c0-4.4,3.6-8,8-8h102c4.4,0,8,3.6,8,8v24c0,4.4-3.6,8-8,8H88c-4.4,0-8-3.6-8-8V229z"/>
				<path class="st6" d="M206,229c0-4.4,3.6-8,8-8h24c4.4,0,8,3.6,8,8v24c0,4.4-3.6,8-8,8h-24c-4.4,0-8-3.6-8-8V229z"/>
				<path class="st6" d="M254,229c0-4.4,3.6-8,8-8h24c4.4,0,8,3.6,8,8v24c0,4.4-3.6,8-8,8h-24c-4.4,0-8-3.6-8-8V229z"/>
				<path class="st6" d="M80,293c0-4.4,3.6-8,8-8h320c4.4,0,8,3.6,8,8s-3.6,8-8,8H88C83.6,301,80,297.5,80,293z"/>
				<path class="st6" d="M80,317c0-4.4,3.6-8,8-8h298c4.4,0,8,3.6,8,8s-3.6,8-8,8H88C83.6,325,80,321.5,80,317z"/>
				<path class="st6" d="M80,341c0-4.4,3.6-8,8-8h308c4.4,0,8,3.6,8,8s-3.6,8-8,8H88C83.6,349,80,345.5,80,341z"/>
				<path class="st6" d="M80,365c0-4.4,3.6-8,8-8h208c4.4,0,8,3.6,8,8s-3.6,8-8,8H88C83.6,373,80,369.5,80,365z"/>
				<path class="st6" d="M80,405c0-4.4,3.6-8,8-8h60c4.4,0,8,3.6,8,8s-3.6,8-8,8H88C83.6,413,80,409.5,80,405z"/>
				<path class="st6" d="M80,429c0-4.4,3.6-8,8-8h298c4.4,0,8,3.6,8,8c0,4.4-3.6,8-8,8H88C83.6,437,80,433.5,80,429z"/>
				<path class="st6" d="M80,469c0-4.4,3.6-8,8-8h83c4.4,0,8,3.6,8,8s-3.6,8-8,8H88C83.6,477,80,473.5,80,469z"/>
				<path class="st6" d="M80,493c0-4.4,3.6-8,8-8h298c4.4,0,8,3.6,8,8s-3.6,8-8,8H88C83.6,501,80,497.5,80,493z"/>
				<path class="st6" d="M80,517c0-4.4,3.6-8,8-8h320c4.4,0,8,3.6,8,8s-3.6,8-8,8H88C83.6,525,80,521.5,80,517z"/>
				<path class="st6" d="M80,557c0-4.4,3.6-8,8-8h15c4.4,0,8,3.6,8,8s-3.6,8-8,8H88C83.6,565,80,561.5,80,557z"/>
				<path class="st6" d="M80,581c0-4.4,3.6-8,8-8h105c4.4,0,8,3.6,8,8s-3.6,8-8,8H88C83.6,589,80,585.5,80,581z"/>
			</g>
		</g>
	</g>
</g>
<g id="Layer_2">
	
		<image style="overflow:visible;" width="1502" height="1125" xlink:href="4E3D9C8.jpg"  transform="matrix(0.6391 0 0 0.6391 0 0)">
	</image>
	<rect class="st7" width="960" height="281.9"/>
	<path class="st8" d="M312,248.4H192.3c-6.6,0-12-5.4-12-12v0c0-6.6,5.4-12,12-12H312c6.6,0,12,5.4,12,12v0
		C324,243,318.6,248.4,312,248.4z"/>
	<path class="st8" d="M513.5,248.4H393.8c-6.6,0-12-5.4-12-12v0c0-6.6,5.4-12,12-12h119.7c6.6,0,12,5.4,12,12v0
		C525.5,243,520.1,248.4,513.5,248.4z"/>
	<path class="st8" d="M107.7,248.4H41c-6.6,0-12-5.4-12-12v0c0-6.6,5.4-12,12-12h66.7c6.6,0,12,5.4,12,12v0
		C119.7,243,114.3,248.4,107.7,248.4z"/>
	<path class="st9" d="M301.5,82.7h-103c-6.2,0-11.2-5-11.2-11.2v0c0-6.2,5-11.2,11.2-11.2h103c6.2,0,11.2,5,11.2,11.2v0
		C312.7,77.7,307.7,82.7,301.5,82.7z"/>
	<path class="st9" d="M357.2,133H198.5c-6.2,0-11.2-5-11.2-11.2v-15.7c0-6.2,5-11.2,11.2-11.2h158.7c6.2,0,11.2,5,11.2,11.2v15.7
		C368.3,128,363.3,133,357.2,133z"/>
	<path class="st9" d="M795,122.1H664.8c-2.2,0-4-1.8-4-4V75c0-2.2,1.8-4,4-4H795c2.2,0,4,1.8,4,4v43.2
		C799,120.3,797.2,122.1,795,122.1z"/>
	<path class="st9" d="M857.8,122.1h-43.2c-2.2,0-4-1.8-4-4V75c0-2.2,1.8-4,4-4h43.2c2.2,0,4,1.8,4,4v43.2
		C861.8,120.3,860,122.1,857.8,122.1z"/>
	<path class="st9" d="M916.9,122.1h-43.2c-2.2,0-4-1.8-4-4V75c0-2.2,1.8-4,4-4h43.2c2.2,0,4,1.8,4,4v43.2
		C920.9,120.3,919.1,122.1,916.9,122.1z"/>
	<rect y="281.9" class="st10" width="960" height="437.2"/>
	<rect x="120.4" y="125.2" class="st7" width="39.9" height="32.4"/>
	<path class="st9" d="M95.7,31.9c35.7,0,64.7,29,64.7,64.7s-29,64.7-64.7,64.7S31,132.3,31,96.5C31,60.8,60,31.9,95.7,31.9z"/>
	<path class="st11" d="M127.7,332.5H37.4c-4.7,0-8.4-3.8-8.4-8.4v0c0-4.7,3.8-8.4,8.4-8.4h90.2c4.7,0,8.4,3.8,8.4,8.4v0
		C136.1,328.7,132.3,332.5,127.7,332.5z"/>
	<path class="st11" d="M127.7,437.2H37.4c-4.7,0-8.4-3.8-8.4-8.4l0,0c0-4.7,3.8-8.4,8.4-8.4h90.2c4.7,0,8.4,3.8,8.4,8.4l0,0
		C136.1,433.4,132.3,437.2,127.7,437.2z"/>
	<path class="st11" d="M163.7,631.2H37.4c-4.7,0-8.4-3.8-8.4-8.4l0,0c0-4.7,3.8-8.4,8.4-8.4h126.2c4.7,0,8.4,3.8,8.4,8.4l0,0
		C172.1,627.4,168.3,631.2,163.7,631.2z"/>
	<path class="st11" d="M160.8,373.2H37.4c-4.7,0-8.4-3.8-8.4-8.4v-5.2c0-4.7,3.8-8.4,8.4-8.4h123.3c4.7,0,8.4,3.8,8.4,8.4v5.2
		C169.2,369.4,165.4,373.2,160.8,373.2z"/>
	<path class="st11" d="M257.4,481.1h-220c-4.7,0-8.4-3.8-8.4-8.4v-5.2c0-4.7,3.8-8.4,8.4-8.4h220c4.7,0,8.4,3.8,8.4,8.4v5.2
		C265.9,477.3,262.1,481.1,257.4,481.1z"/>
	<path class="st11" d="M205,511.7H37.4c-4.7,0-8.4-3.8-8.4-8.4V498c0-4.7,3.8-8.4,8.4-8.4H205c4.7,0,8.4,3.8,8.4,8.4v5.2
		C213.4,507.9,209.7,511.7,205,511.7z"/>
	<path class="st11" d="M269.9,542.2H37.4c-4.7,0-8.4-3.8-8.4-8.4v-5.2c0-4.7,3.8-8.4,8.4-8.4h232.4c4.7,0,8.4,3.8,8.4,8.4v5.2
		C278.3,538.4,274.6,542.2,269.9,542.2z"/>
	<path class="st11" d="M169.9,572.8H37.4c-4.7,0-8.4-3.8-8.4-8.4v-5.2c0-4.7,3.8-8.4,8.4-8.4h132.4c4.7,0,8.4,3.8,8.4,8.4v5.2
		C178.3,569,174.6,572.8,169.9,572.8z"/>
	<path class="st11" d="M178.8,674.2H37.4c-4.7,0-8.4-3.8-8.4-8.4v-5.2c0-4.7,3.8-8.4,8.4-8.4h141.3c4.7,0,8.4,3.8,8.4,8.4v5.2
		C187.2,670.4,183.4,674.2,178.8,674.2z"/>
	<rect x="30.7" y="275.8" class="st7" width="89" height="6.1"/>
	<rect x="933.2" y="282.9" class="st10" width="24.4" height="177.6"/>
	<rect y="192.4" class="st12" width="960" height="1.3"/>
	<path class="st11" d="M163.7,732.2H37.4c-4.7,0-8.4-3.8-8.4-8.4l0,0c0-4.7,3.8-8.4,8.4-8.4h126.2c4.7,0,8.4,3.8,8.4,8.4l0,0
		C172.1,728.5,168.3,732.2,163.7,732.2z"/>
</g>
</svg>
